<mxfile host="www.draw.io" modified="2020-03-24T05:35:59.709Z" agent="Mozilla/5.0 (Macintosh; Intel Mac OS X 10_14_4) AppleWebKit/537.36 (KHTML, like Gecko) Chrome/80.0.3987.132 Safari/537.36" etag="LlI37URsnmxWioypCOi-" version="12.8.8" type="github">
  <diagram id="OfShJ47jD2onA6x1eoML" name="第 1 页">
    <mxGraphModel dx="777" dy="383" grid="1" gridSize="10" guides="1" tooltips="1" connect="1" arrows="1" fold="1" page="1" pageScale="1" pageWidth="827" pageHeight="1169" math="0" shadow="0">
      <root>
        <mxCell id="0" />
        <mxCell id="1" parent="0" />
        <mxCell id="dGZBTP9v3vF6LHqFwYMW-3" value="" style="rounded=0;whiteSpace=wrap;html=1;fontSize=12;dashed=1;" parent="1" vertex="1">
          <mxGeometry x="353" y="1130" width="467" height="150" as="geometry" />
        </mxCell>
        <mxCell id="dGZBTP9v3vF6LHqFwYMW-4" value="" style="rounded=0;whiteSpace=wrap;html=1;dashed=1;" parent="1" vertex="1">
          <mxGeometry x="353" y="640" width="600" height="440" as="geometry" />
        </mxCell>
        <mxCell id="4lL5aOliDO6InL_pvJHm-15" style="edgeStyle=none;rounded=0;orthogonalLoop=1;jettySize=auto;html=1;exitX=0;exitY=0.5;exitDx=0;exitDy=0;entryX=1;entryY=0.5;entryDx=0;entryDy=0;" parent="1" source="dGZBTP9v3vF6LHqFwYMW-7" target="4lL5aOliDO6InL_pvJHm-14" edge="1">
          <mxGeometry relative="1" as="geometry" />
        </mxCell>
        <mxCell id="4lL5aOliDO6InL_pvJHm-16" style="edgeStyle=none;rounded=0;orthogonalLoop=1;jettySize=auto;html=1;exitX=1;exitY=0.5;exitDx=0;exitDy=0;entryX=0;entryY=0.5;entryDx=0;entryDy=0;" parent="1" source="dGZBTP9v3vF6LHqFwYMW-7" target="4lL5aOliDO6InL_pvJHm-3" edge="1">
          <mxGeometry relative="1" as="geometry" />
        </mxCell>
        <mxCell id="4lL5aOliDO6InL_pvJHm-43" style="edgeStyle=none;rounded=0;orthogonalLoop=1;jettySize=auto;html=1;exitX=0;exitY=0.5;exitDx=0;exitDy=0;entryX=1;entryY=0.5;entryDx=0;entryDy=0;startArrow=none;strokeColor=#000000;fillColor=none;startFill=0;" parent="1" source="dGZBTP9v3vF6LHqFwYMW-7" target="4lL5aOliDO6InL_pvJHm-42" edge="1">
          <mxGeometry relative="1" as="geometry" />
        </mxCell>
        <mxCell id="dGZBTP9v3vF6LHqFwYMW-7" value="&lt;font style=&quot;font-size: 12px&quot;&gt;巡检机器人&lt;/font&gt;" style="shape=image;html=1;verticalAlign=top;verticalLabelPosition=bottom;labelBackgroundColor=#ffffff;imageAspect=0;aspect=fixed;image=https://cdn3.iconfinder.com/data/icons/technology-1-1/512/technology-machine-electronic-device-05-128.png;fontSize=18;" parent="1" vertex="1">
          <mxGeometry x="590" y="1160" width="81" height="81" as="geometry" />
        </mxCell>
        <mxCell id="dGZBTP9v3vF6LHqFwYMW-26" value="HTTP协议" style="edgeStyle=orthogonalEdgeStyle;rounded=0;orthogonalLoop=1;jettySize=auto;html=1;exitX=0.5;exitY=0;exitDx=0;exitDy=0;fontSize=12;" parent="1" source="dGZBTP9v3vF6LHqFwYMW-27" target="dGZBTP9v3vF6LHqFwYMW-28" edge="1">
          <mxGeometry relative="1" as="geometry">
            <Array as="points">
              <mxPoint x="659" y="620" />
              <mxPoint x="485" y="620" />
            </Array>
          </mxGeometry>
        </mxCell>
        <mxCell id="4lL5aOliDO6InL_pvJHm-39" style="edgeStyle=none;shape=flexArrow;rounded=0;orthogonalLoop=1;jettySize=auto;html=1;exitX=0;exitY=0.5;exitDx=0;exitDy=0;entryX=1.025;entryY=0.143;entryDx=0;entryDy=0;entryPerimeter=0;startArrow=block;" parent="1" source="dGZBTP9v3vF6LHqFwYMW-27" target="4lL5aOliDO6InL_pvJHm-37" edge="1">
          <mxGeometry relative="1" as="geometry" />
        </mxCell>
        <mxCell id="4lL5aOliDO6InL_pvJHm-41" value="读/写" style="text;html=1;align=center;verticalAlign=middle;resizable=0;points=[];labelBackgroundColor=#ffffff;" parent="4lL5aOliDO6InL_pvJHm-39" vertex="1" connectable="0">
          <mxGeometry x="0.0186" y="-1" relative="1" as="geometry">
            <mxPoint as="offset" />
          </mxGeometry>
        </mxCell>
        <mxCell id="dGZBTP9v3vF6LHqFwYMW-27" value="JAVA&lt;br&gt;后端接口服务" style="rounded=0;whiteSpace=wrap;html=1;fontSize=12;fillColor=#e1d5e7;strokeColor=#9673a6;" parent="1" vertex="1">
          <mxGeometry x="599.5" y="730" width="120" height="60" as="geometry" />
        </mxCell>
        <mxCell id="4lL5aOliDO6InL_pvJHm-30" style="edgeStyle=orthogonalEdgeStyle;rounded=0;orthogonalLoop=1;jettySize=auto;html=1;exitX=0;exitY=0.5;exitDx=0;exitDy=0;entryX=0;entryY=0.5;entryDx=0;entryDy=0;" parent="1" source="dGZBTP9v3vF6LHqFwYMW-28" target="4lL5aOliDO6InL_pvJHm-14" edge="1">
          <mxGeometry relative="1" as="geometry">
            <mxPoint x="340" y="1342" as="targetPoint" />
            <Array as="points">
              <mxPoint x="260" y="530" />
              <mxPoint x="260" y="1239" />
            </Array>
          </mxGeometry>
        </mxCell>
        <mxCell id="4lL5aOliDO6InL_pvJHm-31" value="消息订阅/发布&lt;br&gt;红外图片接收" style="text;html=1;align=center;verticalAlign=middle;resizable=0;points=[];labelBackgroundColor=#ffffff;" parent="4lL5aOliDO6InL_pvJHm-30" vertex="1" connectable="0">
          <mxGeometry x="-0.0769" relative="1" as="geometry">
            <mxPoint as="offset" />
          </mxGeometry>
        </mxCell>
        <mxCell id="dGZBTP9v3vF6LHqFwYMW-28" value="前端界面展示" style="rounded=0;whiteSpace=wrap;html=1;fontSize=12;fillColor=#f8cecc;strokeColor=#b85450;" parent="1" vertex="1">
          <mxGeometry x="425" y="500" width="120" height="60" as="geometry" />
        </mxCell>
        <mxCell id="4lL5aOliDO6InL_pvJHm-22" style="edgeStyle=none;rounded=0;orthogonalLoop=1;jettySize=auto;html=1;exitX=0.5;exitY=0;exitDx=0;exitDy=0;startArrow=classic;startFill=1;" parent="1" source="4lL5aOliDO6InL_pvJHm-3" target="4lL5aOliDO6InL_pvJHm-21" edge="1">
          <mxGeometry relative="1" as="geometry" />
        </mxCell>
        <mxCell id="4lL5aOliDO6InL_pvJHm-52" value="消息订阅/发布" style="text;html=1;align=center;verticalAlign=middle;resizable=0;points=[];labelBackgroundColor=#ffffff;" parent="4lL5aOliDO6InL_pvJHm-22" vertex="1" connectable="0">
          <mxGeometry x="0.1571" relative="1" as="geometry">
            <mxPoint as="offset" />
          </mxGeometry>
        </mxCell>
        <mxCell id="4lL5aOliDO6InL_pvJHm-3" value="Ros服务" style="rounded=0;whiteSpace=wrap;html=1;" parent="1" vertex="1">
          <mxGeometry x="719.5" y="1180.5" width="80" height="40" as="geometry" />
        </mxCell>
        <mxCell id="4lL5aOliDO6InL_pvJHm-14" value="RosBridge服务" style="rounded=0;whiteSpace=wrap;html=1;" parent="1" vertex="1">
          <mxGeometry x="440" y="1219" width="90" height="40" as="geometry" />
        </mxCell>
        <mxCell id="4lL5aOliDO6InL_pvJHm-38" style="rounded=0;orthogonalLoop=1;jettySize=auto;html=1;exitX=0.002;exitY=0.596;exitDx=0;exitDy=0;entryX=1.008;entryY=0.685;entryDx=0;entryDy=0;entryPerimeter=0;strokeColor=#000000;startArrow=block;shape=flexArrow;fillColor=none;exitPerimeter=0;" parent="1" source="4lL5aOliDO6InL_pvJHm-21" target="4lL5aOliDO6InL_pvJHm-37" edge="1">
          <mxGeometry relative="1" as="geometry">
            <mxPoint x="600" y="894.29" as="sourcePoint" />
            <mxPoint x="490" y="901.71" as="targetPoint" />
          </mxGeometry>
        </mxCell>
        <mxCell id="4lL5aOliDO6InL_pvJHm-40" value="读/写" style="text;html=1;align=center;verticalAlign=middle;resizable=0;points=[];labelBackgroundColor=#ffffff;" parent="4lL5aOliDO6InL_pvJHm-38" vertex="1" connectable="0">
          <mxGeometry x="-0.0094" y="-3" relative="1" as="geometry">
            <mxPoint as="offset" />
          </mxGeometry>
        </mxCell>
        <mxCell id="4lL5aOliDO6InL_pvJHm-21" value="" style="rounded=0;whiteSpace=wrap;html=1;" parent="1" vertex="1">
          <mxGeometry x="600" y="810" width="320" height="240" as="geometry" />
        </mxCell>
        <mxCell id="4lL5aOliDO6InL_pvJHm-19" value="实时消息处理服务" style="rounded=0;whiteSpace=wrap;html=1;fontSize=12;fillColor=#ffe6cc;strokeColor=#d79b00;" parent="1" vertex="1">
          <mxGeometry x="770" y="851" width="130" height="48.77" as="geometry" />
        </mxCell>
        <mxCell id="4lL5aOliDO6InL_pvJHm-18" value="路径规划服务" style="rounded=0;whiteSpace=wrap;html=1;fontSize=12;fillColor=#f8cecc;strokeColor=#b85450;" parent="1" vertex="1">
          <mxGeometry x="770" y="919" width="130" height="50" as="geometry" />
        </mxCell>
        <mxCell id="4lL5aOliDO6InL_pvJHm-20" value="着色服务" style="rounded=0;whiteSpace=wrap;html=1;fontSize=12;fillColor=#d5e8d4;strokeColor=#82b366;" parent="1" vertex="1">
          <mxGeometry x="620" y="851" width="130" height="50.77" as="geometry" />
        </mxCell>
        <mxCell id="4lL5aOliDO6InL_pvJHm-23" value="任务调度服务" style="rounded=0;whiteSpace=wrap;html=1;fontSize=12;fillColor=#f5f5f5;strokeColor=#666666;fontColor=#333333;" parent="1" vertex="1">
          <mxGeometry x="620" y="919" width="130" height="50.77" as="geometry" />
        </mxCell>
        <mxCell id="4lL5aOliDO6InL_pvJHm-27" style="edgeStyle=orthogonalEdgeStyle;rounded=0;orthogonalLoop=1;jettySize=auto;html=1;exitX=0.5;exitY=1;exitDx=0;exitDy=0;entryX=0.5;entryY=0;entryDx=0;entryDy=0;" parent="1" source="4lL5aOliDO6InL_pvJHm-26" target="dGZBTP9v3vF6LHqFwYMW-27" edge="1">
          <mxGeometry relative="1" as="geometry">
            <Array as="points">
              <mxPoint x="810" y="620" />
              <mxPoint x="659" y="620" />
            </Array>
          </mxGeometry>
        </mxCell>
        <mxCell id="4lL5aOliDO6InL_pvJHm-28" value="HTTP协议" style="text;html=1;align=center;verticalAlign=middle;resizable=0;points=[];labelBackgroundColor=#ffffff;" parent="4lL5aOliDO6InL_pvJHm-27" vertex="1" connectable="0">
          <mxGeometry x="-0.6194" y="-1" relative="1" as="geometry">
            <mxPoint x="-79.17" y="1" as="offset" />
          </mxGeometry>
        </mxCell>
        <mxCell id="4lL5aOliDO6InL_pvJHm-26" value="第三方PMS系统" style="rounded=0;whiteSpace=wrap;html=1;fillColor=#f5f5f5;strokeColor=#666666;fontColor=#333333;" parent="1" vertex="1">
          <mxGeometry x="750" y="500" width="120" height="60" as="geometry" />
        </mxCell>
        <mxCell id="4lL5aOliDO6InL_pvJHm-37" value="" style="rounded=0;whiteSpace=wrap;html=1;" parent="1" vertex="1">
          <mxGeometry x="370" y="780" width="120" height="270" as="geometry" />
        </mxCell>
        <mxCell id="dGZBTP9v3vF6LHqFwYMW-23" value="mysql数据库" style="shape=cylinder;whiteSpace=wrap;html=1;boundedLbl=1;backgroundOutline=1;fontSize=12;fillColor=#fff2cc;strokeColor=#d6b656;" parent="1" vertex="1">
          <mxGeometry x="400" y="840" width="60" height="80" as="geometry" />
        </mxCell>
        <mxCell id="4lL5aOliDO6InL_pvJHm-17" value="nosql数据库" style="shape=cylinder;whiteSpace=wrap;html=1;boundedLbl=1;backgroundOutline=1;fontSize=12;fillColor=#d5e8d4;strokeColor=#82b366;" parent="1" vertex="1">
          <mxGeometry x="400" y="950" width="60" height="80" as="geometry" />
        </mxCell>
        <mxCell id="4lL5aOliDO6InL_pvJHm-42" value="RTSP视频流" style="rounded=0;whiteSpace=wrap;html=1;" parent="1" vertex="1">
          <mxGeometry x="440" y="1160" width="90" height="40" as="geometry" />
        </mxCell>
        <mxCell id="4lL5aOliDO6InL_pvJHm-46" style="edgeStyle=orthogonalEdgeStyle;rounded=0;orthogonalLoop=1;jettySize=auto;html=1;exitX=0.25;exitY=0;exitDx=0;exitDy=0;entryX=0;entryY=0.5;entryDx=0;entryDy=0;startArrow=none;startFill=0;strokeColor=#000000;fillColor=none;" parent="1" source="4lL5aOliDO6InL_pvJHm-44" target="dGZBTP9v3vF6LHqFwYMW-28" edge="1">
          <mxGeometry relative="1" as="geometry" />
        </mxCell>
        <mxCell id="4lL5aOliDO6InL_pvJHm-47" value="拉流" style="edgeStyle=orthogonalEdgeStyle;rounded=0;orthogonalLoop=1;jettySize=auto;html=1;exitX=0;exitY=0.5;exitDx=0;exitDy=0;entryX=0;entryY=0.5;entryDx=0;entryDy=0;startArrow=none;startFill=0;strokeColor=#000000;fillColor=none;" parent="1" source="4lL5aOliDO6InL_pvJHm-44" target="4lL5aOliDO6InL_pvJHm-42" edge="1">
          <mxGeometry relative="1" as="geometry">
            <Array as="points">
              <mxPoint x="320" y="680" />
              <mxPoint x="320" y="1180" />
            </Array>
          </mxGeometry>
        </mxCell>
        <mxCell id="4lL5aOliDO6InL_pvJHm-44" value="RTSP转WebRTC服务" style="rounded=0;whiteSpace=wrap;html=1;fillColor=#dae8fc;strokeColor=#6c8ebf;" parent="1" vertex="1">
          <mxGeometry x="370" y="690" width="120" height="60" as="geometry" />
        </mxCell>
        <mxCell id="jXqduaUId4YfjK-P98Zr-1" value="电站摄像头报警检测服务" style="rounded=0;whiteSpace=wrap;html=1;fontSize=12;fillColor=#d0cee2;strokeColor=#56517e;" vertex="1" parent="1">
          <mxGeometry x="620" y="983" width="280" height="50" as="geometry" />
        </mxCell>
        <mxCell id="jXqduaUId4YfjK-P98Zr-3" style="edgeStyle=orthogonalEdgeStyle;rounded=0;orthogonalLoop=1;jettySize=auto;html=1;exitX=0.5;exitY=0;exitDx=0;exitDy=0;entryX=0.922;entryY=1;entryDx=0;entryDy=0;entryPerimeter=0;" edge="1" parent="1" source="jXqduaUId4YfjK-P98Zr-2" target="4lL5aOliDO6InL_pvJHm-21">
          <mxGeometry relative="1" as="geometry" />
        </mxCell>
        <mxCell id="jXqduaUId4YfjK-P98Zr-4" value="rtsp视频拉流" style="text;html=1;align=center;verticalAlign=middle;resizable=0;points=[];labelBackgroundColor=#ffffff;" vertex="1" connectable="0" parent="jXqduaUId4YfjK-P98Zr-3">
          <mxGeometry x="-0.08" relative="1" as="geometry">
            <mxPoint y="9" as="offset" />
          </mxGeometry>
        </mxCell>
        <mxCell id="jXqduaUId4YfjK-P98Zr-2" value="" style="rounded=0;whiteSpace=wrap;html=1;fontSize=12;dashed=1;" vertex="1" parent="1">
          <mxGeometry x="840" y="1130" width="110" height="150" as="geometry" />
        </mxCell>
        <mxCell id="jXqduaUId4YfjK-P98Zr-5" value="可见光摄像头" style="image;html=1;labelBackgroundColor=#ffffff;image=img/lib/clip_art/networking/Ip_Camera_128x128.png" vertex="1" parent="1">
          <mxGeometry x="871" y="1159" width="28" height="28" as="geometry" />
        </mxCell>
        <mxCell id="jXqduaUId4YfjK-P98Zr-6" value="红外摄像头" style="points=[];aspect=fixed;html=1;align=center;shadow=0;dashed=0;image;image=img/lib/allied_telesis/security/POE_DVS_Camera.svg;" vertex="1" parent="1">
          <mxGeometry x="865.97" y="1219" width="38.06" height="30" as="geometry" />
        </mxCell>
        <mxCell id="jXqduaUId4YfjK-P98Zr-7" value="机器人端" style="text;html=1;strokeColor=#b46504;fillColor=#fad7ac;align=center;verticalAlign=middle;whiteSpace=wrap;rounded=0;" vertex="1" parent="1">
          <mxGeometry x="353" y="1130" width="67" height="20" as="geometry" />
        </mxCell>
        <mxCell id="jXqduaUId4YfjK-P98Zr-8" value="电厂摄像头" style="text;html=1;strokeColor=#b46504;fillColor=#fad7ac;align=center;verticalAlign=middle;whiteSpace=wrap;rounded=0;" vertex="1" parent="1">
          <mxGeometry x="840.03" y="1130" width="67" height="20" as="geometry" />
        </mxCell>
        <mxCell id="jXqduaUId4YfjK-P98Zr-9" value="数据仓库" style="text;html=1;strokeColor=#b46504;fillColor=#fad7ac;align=center;verticalAlign=middle;whiteSpace=wrap;rounded=0;" vertex="1" parent="1">
          <mxGeometry x="370" y="780" width="60" height="20" as="geometry" />
        </mxCell>
        <mxCell id="jXqduaUId4YfjK-P98Zr-12" value="核心业务层" style="text;html=1;strokeColor=#b46504;fillColor=#fad7ac;align=center;verticalAlign=middle;whiteSpace=wrap;rounded=0;" vertex="1" parent="1">
          <mxGeometry x="600" y="810" width="70" height="20" as="geometry" />
        </mxCell>
      </root>
    </mxGraphModel>
  </diagram>
</mxfile>
